<svg width="934" height="539" viewBox="0 0 934 539" fill="none" xmlns="http://www.w3.org/2000/svg">
<g clip-path="url(#clip0_605_3)">
<path d="M86.3909 420.272C85.6508 420.306 84.9182 420.112 84.2922 419.715C83.6663 419.319 83.1773 418.74 82.8915 418.056C82.6057 417.373 82.5369 416.618 82.6944 415.894C82.852 415.17 83.2283 414.512 83.7723 414.009C83.8634 413.647 83.9287 413.387 84.0199 413.025C83.9873 412.946 83.9545 412.868 83.9215 412.789C83.1759 411.028 81.9266 409.526 80.3304 408.473C78.7343 407.42 76.8625 406.862 74.9501 406.869C73.0378 406.876 71.1702 407.448 69.5819 408.513C67.9936 409.578 66.7555 411.089 66.023 412.855C63.0956 419.906 59.3685 426.968 58.4508 434.423C58.0467 437.718 58.2171 441.059 58.9547 444.295C52.0791 429.297 48.5088 412.996 48.4858 396.497C48.4844 392.356 48.7144 388.219 49.1748 384.105C49.5553 380.731 50.0833 377.382 50.7586 374.057C54.4438 356.016 62.356 339.106 73.8456 324.716C79.4065 321.682 83.9037 317.016 86.7311 311.347C87.7554 309.309 88.4794 307.134 88.8805 304.889C88.2532 304.971 87.6156 305.022 86.9883 305.063C86.7929 305.074 86.5872 305.084 86.3918 305.094L86.3181 305.098C85.6287 305.128 84.945 304.959 84.3494 304.611C83.7537 304.262 83.2716 303.749 82.9609 303.133C82.6503 302.516 82.5244 301.824 82.5984 301.137C82.6723 300.451 82.9431 299.801 83.378 299.265C83.6488 298.932 83.9198 298.599 84.191 298.266C84.6024 297.752 85.024 297.248 85.4353 296.734C85.4828 296.685 85.5275 296.633 85.569 296.579C86.0422 295.993 86.5151 295.417 86.9883 294.831C86.1247 293.491 84.9633 292.368 83.5946 291.551C78.8537 288.774 72.3132 290.697 68.8887 294.985C65.454 299.274 64.8061 305.29 65.9989 310.647C67.1721 315.206 69.1126 319.533 71.7374 323.44C71.4802 323.77 71.2128 324.088 70.9558 324.417C66.256 330.461 62.1599 336.95 58.726 343.792C59.5611 336.127 58.5644 328.373 55.818 321.168C53.0346 314.453 47.8174 308.798 43.223 302.993C37.7045 296.02 26.3882 299.063 25.4159 307.902C25.4065 307.988 25.3973 308.073 25.3883 308.159C26.0708 308.544 26.7388 308.952 27.3923 309.385C28.2134 309.933 28.8496 310.717 29.2176 311.633C29.5856 312.55 29.6682 313.556 29.4546 314.52C29.241 315.484 28.7412 316.361 28.0206 317.036C27.3 317.711 26.3923 318.153 25.4163 318.304L25.3164 318.319C25.5595 320.779 25.9892 323.216 26.6018 325.61C28.377 332.295 31.5139 338.54 35.8158 343.955C40.1178 349.37 45.4921 353.838 51.6017 357.079C52.0028 357.284 52.3936 357.49 52.7947 357.686C49.3447 367.462 47.1807 377.646 46.357 387.981C45.8907 394.079 45.9182 400.204 46.4393 406.297L46.4084 406.081C45.092 399.306 41.4777 393.192 36.176 388.773C28.3016 382.305 17.1766 379.923 8.68155 374.723C7.77873 374.144 6.72897 373.834 5.65609 373.832C4.5832 373.829 3.53195 374.133 2.62632 374.709C1.72068 375.284 0.998428 376.106 0.544757 377.078C0.0910859 378.051 -0.075094 379.132 0.0658296 380.196C0.0772229 380.272 0.0888072 380.347 0.100574 380.423C1.36693 380.939 2.59994 381.533 3.79242 382.202C4.47484 382.587 5.14283 382.996 5.79642 383.428C6.6175 383.976 7.25371 384.76 7.62171 385.677C7.9897 386.593 8.07232 387.599 7.85872 388.563C7.64513 389.527 7.14529 390.404 6.4247 391.079C5.70411 391.755 4.79637 392.196 3.82042 392.347L3.72042 392.362C3.64842 392.373 3.58673 392.383 3.51485 392.393C5.6786 397.56 8.71548 402.315 12.4925 406.451C17.1584 411.458 22.7978 415.459 29.0649 418.208C35.3319 420.958 42.0946 422.399 48.9382 422.442H48.9486C50.8063 430.515 53.498 438.373 56.9802 445.889H85.6719C85.7748 445.571 85.8673 445.241 85.9599 444.923C83.3041 445.09 80.6379 444.931 78.0207 444.45C80.1495 441.838 82.2782 439.205 84.407 436.593C84.4545 436.544 84.4991 436.492 84.5407 436.439C85.6205 435.102 86.7105 433.775 87.7903 432.438L87.7909 432.437C87.8485 428.339 87.3782 424.25 86.3918 420.272L86.3909 420.272Z" fill="#F2F2F2"/>
<path d="M439.755 446.277C439.755 446.433 439.725 446.588 439.665 446.733C439.605 446.878 439.518 447.009 439.407 447.12C439.296 447.23 439.165 447.318 439.02 447.377C438.876 447.437 438.721 447.468 438.564 447.467H1.27448C0.958867 447.467 0.656182 447.342 0.433014 447.119C0.209846 446.895 0.0844727 446.593 0.0844727 446.277C0.0844727 445.961 0.209846 445.659 0.433014 445.436C0.656182 445.212 0.958867 445.087 1.27448 445.087H438.564C438.721 445.087 438.876 445.117 439.02 445.177C439.165 445.236 439.296 445.324 439.407 445.435C439.518 445.545 439.605 445.677 439.665 445.821C439.725 445.966 439.755 446.121 439.755 446.277Z" fill="#CCCCCC"/>
<path d="M206.366 289.309C207.384 289.649 208.314 290.208 209.093 290.947C209.871 291.686 210.478 292.586 210.87 293.585C211.263 294.584 211.432 295.657 211.365 296.728C211.298 297.799 210.997 298.842 210.483 299.784L221.01 312.844L214.634 321.177L200.027 302.525C198.502 301.557 197.384 300.063 196.886 298.326C196.388 296.589 196.545 294.73 197.326 293.101C198.108 291.472 199.459 290.186 201.126 289.487C202.792 288.788 204.656 288.725 206.366 289.309Z" fill="#A0616A"/>
<path d="M211.073 324.881L205.127 310.091L216.125 302.281L221.266 311.494L228.773 316.614L238.744 325.469C241.447 323.25 262.186 306.63 268.821 313.695C269.627 314.489 270.252 315.447 270.653 316.505C271.054 317.563 271.221 318.696 271.142 319.824C270.728 325.203 265.024 329.718 264.808 329.885L252.217 341.707C251.748 342.508 246.799 350.743 241.143 352.176C240.337 352.397 239.493 352.449 238.666 352.327C237.839 352.205 237.046 351.913 236.337 351.468C223.466 343.565 215.237 335.788 212.215 328.729C211.677 327.499 211.293 326.206 211.073 324.881Z" fill="#2F2E41"/>
<path d="M204.841 518.444L195.157 518.896L188.803 481.76L203.096 481.092L204.841 518.444Z" fill="#A0616A"/>
<path d="M210.033 536.629L203.161 536.95L201.631 530.52L198.793 537.154L180.568 538.007C179.695 538.047 178.831 537.808 178.103 537.323C177.375 536.838 176.821 536.134 176.522 535.312C176.224 534.49 176.195 533.594 176.441 532.755C176.688 531.916 177.196 531.177 177.891 530.647L191.975 519.915L191.668 513.357L207.019 513.555L210.033 536.629Z" fill="#2F2E41"/>
<path d="M103.735 438.707L100.207 429.678L133.358 411.773L150.104 422.299L103.735 438.707Z" fill="#A0616A"/>
<path d="M88.1686 449.446L85.6651 443.038L91.2674 439.531L84.0737 438.966L77.4337 421.972C77.1154 421.157 77.0657 420.263 77.2921 419.418C77.5184 418.573 78.0089 417.823 78.6918 417.276C79.3747 416.73 80.2144 416.417 81.0883 416.381C81.9621 416.346 82.8243 416.591 83.549 417.08L98.2239 426.989L104.339 424.599L109.065 439.206L88.1686 449.446Z" fill="#2F2E41"/>
<path d="M294.178 411.833C294.178 411.833 290.156 437.508 271.144 439.41C252.133 441.311 234.608 432.746 234.608 432.746L181.376 416.351C181.376 416.351 124.756 432.439 115.25 434.974C115.25 434.974 108.693 420.091 108.913 419.131C110.934 410.285 113.568 416.269 113.568 416.269L173.771 389.653C173.771 389.653 183.277 387.118 199.754 394.089C216.23 401.06 260.371 417.863 260.371 417.863L294.178 411.833Z" fill="#2F2E41"/>
<path d="M293.958 410.259C293.958 410.259 297.129 441.017 278.609 445.716C261.005 450.183 236.721 445.601 236.721 445.601L207.772 442.578C207.772 442.578 206.505 479.775 206.505 498.152C200.623 498.952 194.696 499.375 188.761 499.42C187.493 499.42 187.409 498.756 187.409 498.756L184.955 434.469C184.783 431.674 185.197 428.874 186.172 426.249C187.147 423.624 188.661 421.232 190.617 419.227C192.572 417.222 194.925 415.649 197.525 414.608C200.125 413.568 202.914 413.083 205.712 413.186C207.079 413.238 208.512 413.334 210.013 413.476C227.822 415.184 249.931 411.553 249.931 411.553L293.958 410.259Z" fill="#2F2E41"/>
<path d="M242.59 365.637C242.59 365.637 235.072 411.103 240.152 414.732C245.233 418.362 252.201 418.376 252.201 418.376L253.821 393.273L242.59 365.637Z" fill="#2F2E41"/>
<path d="M255.129 309.8L245.077 319.352C240.405 323.792 237.307 329.634 236.255 335.993C235.203 342.352 236.253 348.881 239.247 354.589L244.052 363.752L255.129 309.8Z" fill="#2F2E41"/>
<path d="M257.377 311.406L243.756 326.921C240.767 330.326 238.914 334.578 238.457 339.086C238.249 341.133 238.333 343.199 238.705 345.223L243.838 373.128L247.697 413.427C247.697 413.427 277.483 422.452 280.532 408.516C283.581 394.58 257.377 311.406 257.377 311.406Z" fill="#6C63FF"/>
<path d="M249.612 400.241L245.257 390.224L241.561 364.111C241.36 362.591 245.495 337.729 251.483 311.055L258.761 300.867L262.959 297.019L274.917 304.858C279.23 307.139 288.662 336.921 282.856 357.997C280.859 365.247 284.35 374.272 284.888 380.934L293.176 401.298L295.138 413.075L294.839 413.189C294.54 413.304 289.744 413.951 270.163 417.215C253.939 419.918 262.823 406.615 249.612 400.241Z" fill="#2F2E41"/>
<path d="M211.283 389.298C211.878 388.405 212.662 387.653 213.579 387.096C214.496 386.539 215.524 386.189 216.591 386.072C217.657 385.955 218.737 386.073 219.753 386.419C220.769 386.764 221.697 387.328 222.472 388.07L237.834 381.335L244.204 389.673L222.375 398.879C221.042 400.098 219.307 400.785 217.5 400.81C215.694 400.835 213.941 400.197 212.574 399.016C211.206 397.835 210.32 396.193 210.082 394.402C209.844 392.611 210.271 390.795 211.283 389.298Z" fill="#A0616A"/>
<path d="M246.845 394.08L231.014 395.941L226.359 383.28L236.598 380.734L243.507 374.832L254.666 367.531C253.232 364.341 242.63 339.97 251.188 335.42C252.165 334.849 253.254 334.498 254.38 334.388C255.506 334.279 256.642 334.414 257.711 334.786C262.793 336.595 265.655 343.283 265.759 343.535L273.868 358.785C274.517 359.448 281.168 366.382 281.068 372.216C281.07 373.052 280.899 373.88 280.564 374.646C280.23 375.412 279.74 376.101 279.125 376.668C268.124 387.018 258.462 392.92 250.858 393.987C249.529 394.184 248.181 394.215 246.845 394.08Z" fill="#2F2E41"/>
<path d="M257.131 295.737C267.595 294.483 275.038 284.795 273.757 274.098C272.475 263.401 262.953 255.746 252.49 257C242.026 258.253 234.582 267.941 235.864 278.638C237.146 289.335 246.667 296.99 257.131 295.737Z" fill="#A0616A"/>
<path d="M304.502 261.894C300.832 258.524 298.704 253.725 295.618 249.769C292.533 245.812 287.595 242.532 282.981 244.092C279.801 245.167 277.624 248.348 276.732 251.711C275.84 255.073 276.025 258.642 276.217 262.136C275.442 255.001 269.919 248.655 263.179 247.156C259.765 246.485 256.225 246.916 253.071 248.385C249.917 249.855 247.31 252.287 245.626 255.332C243.655 253.901 241.228 253.243 238.805 253.481C236.381 253.72 234.129 254.84 232.476 256.629C230.899 258.573 230.026 260.994 230.001 263.498C229.975 266.002 230.799 268.441 232.337 270.417C233.921 272.272 236.128 273.486 238.543 273.829C240.958 274.173 243.416 273.623 245.454 272.283L247.122 273.485C246.91 275.008 247.24 276.558 248.054 277.862C248.869 279.167 250.116 280.144 251.578 280.622C253.921 281.257 257.058 280.729 258.175 282.974C258.956 284.543 258.073 286.423 257.062 287.821C256.051 289.22 254.828 290.685 254.897 292.444C255.001 295.099 257.939 296.615 260.475 296.874C263.576 297.117 266.678 296.428 269.385 294.898C272.092 293.367 274.281 291.063 275.671 288.281C275.725 288.172 275.785 288.062 275.851 287.951C277.481 285.257 278.546 282.26 278.979 279.141C279.412 276.022 279.205 272.848 278.369 269.812C278.031 268.62 278.117 267.693 278.92 267.305C282.391 265.628 292.846 267.023 296.198 269.014C299.55 271.005 302.382 273.831 305.639 275.988C308.897 278.145 312.897 279.63 316.569 278.497C318.036 277.954 319.38 277.122 320.521 276.051C321.662 274.98 322.577 273.691 323.211 272.26C324.507 269.341 325.366 266.247 325.76 263.078C322.608 265.321 318.786 266.426 314.924 266.211C311.061 265.996 307.386 264.473 304.502 261.894Z" fill="#2F2E41"/>
<path d="M307.388 388.852L307.378 388.839L307.388 388.865V388.852Z" fill="#2F2E41"/>
<path d="M183.262 297.748C175.051 299.007 166.651 297.803 159.124 294.289C151.598 290.774 145.282 285.106 140.977 278.002C136.671 270.898 134.569 262.677 134.936 254.378C135.303 246.08 138.122 238.076 143.038 231.38C147.954 224.683 154.744 219.595 162.552 216.758C170.359 213.922 178.832 213.464 186.9 215.442C194.968 217.421 202.268 221.748 207.876 227.875C213.485 234.003 217.151 241.656 218.41 249.867C219.246 255.319 219 260.882 217.686 266.238C216.372 271.595 214.016 276.641 210.752 281.087C207.488 285.533 203.381 289.293 198.664 292.151C193.947 295.01 188.713 296.912 183.262 297.748ZM170.832 216.696C163.012 217.895 155.723 221.386 149.888 226.727C144.052 232.069 139.931 239.021 138.047 246.705C136.162 254.388 136.598 262.458 139.3 269.894C142.002 277.329 146.848 283.797 153.225 288.478C159.602 293.16 167.225 295.845 175.128 296.194C183.032 296.544 190.862 294.542 197.627 290.441C204.393 286.341 209.791 280.326 213.138 273.158C216.485 265.99 217.632 257.99 216.433 250.17C215.637 244.978 213.825 239.993 211.103 235.501C208.38 231.009 204.8 227.097 200.565 223.988C196.331 220.88 191.525 218.636 186.424 217.385C181.322 216.133 176.024 215.899 170.832 216.696Z" fill="#3F3D56"/>
<path d="M330.833 138.539C322.622 139.798 314.223 138.594 306.696 135.079C299.169 131.565 292.854 125.897 288.549 118.793C284.243 111.689 282.141 103.468 282.508 95.1693C282.875 86.8706 285.694 78.867 290.61 72.1707C295.525 65.4744 302.316 60.3861 310.124 57.5493C317.931 54.7125 326.404 54.2545 334.472 56.2333C342.54 58.2122 349.839 62.5389 355.448 68.6664C361.057 74.7939 364.722 82.4469 365.981 90.6577C366.818 96.1095 366.572 101.673 365.258 107.029C363.944 112.386 361.588 117.432 358.324 121.878C355.06 126.324 350.952 130.084 346.236 132.942C341.519 135.801 336.285 137.703 330.833 138.539ZM318.403 57.4864C310.584 58.6857 303.295 62.1768 297.459 67.5184C291.624 72.8599 287.503 79.812 285.618 87.4955C283.734 95.179 284.17 103.249 286.872 110.684C289.573 118.12 294.419 124.588 300.797 129.269C307.174 133.951 314.797 136.636 322.7 136.985C330.604 137.335 338.433 135.333 345.199 131.232C351.965 127.132 357.363 121.117 360.71 113.949C364.057 106.781 365.204 98.7807 364.005 90.9609C362.396 80.4748 356.689 71.0571 348.137 64.7794C339.585 58.5017 328.89 55.8784 318.403 57.4864Z" fill="#3F3D56"/>
<path d="M501.029 233.69C492.818 234.95 484.418 233.746 476.892 230.231C469.365 226.716 463.05 221.048 458.744 213.945C454.439 206.841 452.337 198.619 452.704 190.321C453.07 182.022 455.89 174.018 460.806 167.322C465.721 160.626 472.512 155.538 480.319 152.701C488.127 149.864 496.6 149.406 504.668 151.385C512.735 153.364 520.035 157.69 525.644 163.818C531.252 169.945 534.918 177.598 536.177 185.809C537.013 191.261 536.767 196.824 535.454 202.181C534.14 207.538 531.784 212.583 528.52 217.029C525.256 221.475 521.148 225.235 516.431 228.094C511.715 230.953 506.481 232.854 501.029 233.69ZM488.599 152.638C480.78 153.837 473.491 157.328 467.655 162.67C461.819 168.011 457.699 174.963 455.814 182.647C453.93 190.33 454.366 198.4 457.067 205.836C459.769 213.272 464.615 219.739 470.993 224.421C477.37 229.102 484.993 231.787 492.896 232.137C500.8 232.486 508.629 230.484 515.395 226.383C522.161 222.283 527.558 216.268 530.906 209.1C534.253 201.932 535.4 193.932 534.2 186.112C532.592 175.626 526.885 166.208 518.333 159.931C509.781 153.653 499.085 151.03 488.599 152.638Z" fill="#3F3D56"/>
<path d="M702.792 83.5206C694.581 84.7798 686.181 83.5759 678.655 80.0611C671.128 76.5464 664.813 70.8787 660.507 63.7748C656.202 56.6708 654.099 48.4497 654.466 40.151C654.833 31.8523 657.653 23.8487 662.568 17.1524C667.484 10.4561 674.275 5.36782 682.082 2.53099C689.889 -0.305841 698.363 -0.763799 706.43 1.21502C714.498 3.19385 721.798 7.52058 727.406 13.6481C733.015 19.7756 736.681 27.4286 737.94 35.6394C738.776 41.0912 738.53 46.6543 737.216 52.011C735.902 57.3678 733.546 62.4133 730.282 66.8595C727.019 71.3056 722.911 75.0654 718.194 77.9241C713.477 80.7829 708.244 82.6846 702.792 83.5206ZM690.362 2.46815C682.542 3.66736 675.254 7.1585 669.418 12.5001C663.582 17.8417 659.461 24.7938 657.577 32.4773C655.692 40.1608 656.128 48.2306 658.83 55.6662C661.532 63.1018 666.378 69.5693 672.755 74.2508C679.133 78.9323 686.755 81.6175 694.659 81.9669C702.562 82.3163 710.392 80.3142 717.158 76.2137C723.923 72.1133 729.321 66.0987 732.668 58.9305C736.016 51.7623 737.162 43.7624 735.963 35.9426C734.355 25.4565 728.647 16.0388 720.095 9.76108C711.543 3.4834 700.848 0.860045 690.362 2.46814V2.46815Z" fill="#3F3D56"/>
<path d="M894.045 156.372C885.834 157.631 877.434 156.427 869.907 152.912C862.381 149.397 856.066 143.73 851.76 136.626C847.455 129.522 845.352 121.301 845.719 113.002C846.086 104.703 848.906 96.6998 853.821 90.0035C858.737 83.3072 865.528 78.2189 873.335 75.3821C881.142 72.5452 889.616 72.0873 897.683 74.0661C905.751 76.0449 913.051 80.3717 918.659 86.4992C924.268 92.6267 927.934 100.28 929.193 108.491C930.881 119.501 928.127 130.731 921.535 139.711C914.944 148.69 905.055 154.683 894.045 156.372ZM881.615 75.3192C873.795 76.5184 866.506 80.0096 860.671 85.3511C854.835 90.6927 850.714 97.6448 848.83 105.328C846.945 113.012 847.381 121.082 850.083 128.517C852.785 135.953 857.631 142.42 864.008 147.102C870.386 151.783 878.008 154.469 885.912 154.818C893.815 155.167 901.645 153.165 908.411 149.065C915.176 144.964 920.574 138.95 923.921 131.782C927.269 124.613 928.415 116.614 927.216 108.794C925.608 98.3076 919.9 88.8898 911.348 82.6122C902.796 76.3345 892.101 73.7111 881.615 75.3192Z" fill="#3F3D56"/>
<path d="M346.446 82.0169L351.237 80.2705C351.237 80.2705 347.798 85.5529 347.052 85.9706C347.13 86.969 347.282 87.9602 347.507 88.936C344.263 131.115 306.513 118.491 306.513 118.491C319.31 116.833 319.594 111.427 319.594 111.427C312.014 111.477 309.788 106.861 309.788 106.861C310.507 107.109 311.293 107.084 311.994 106.79C312.696 106.496 313.264 105.953 313.59 105.266C305.266 104.418 305.155 96.4425 305.155 96.4425C306.741 97.254 308.507 97.6449 310.287 97.5778C309.23 96.6269 300.339 88.7841 304.173 83.4411C304.173 83.4411 311.224 92.4767 325.891 91.138L326.849 90.7888C326.572 90.1026 326.393 89.3807 326.318 88.6445C325.896 85.8919 326.584 83.0843 328.232 80.8395C329.88 78.5946 332.352 77.0963 335.105 76.6742C342.024 75.6131 344.113 79.3395 344.113 79.3395L348.601 75.6163C348.502 75.6315 348.765 80.6495 346.446 82.0169Z" fill="#3F3D56"/>
<path d="M502.82 169.904C505.587 169.489 508.405 170.184 510.661 171.84C512.916 173.496 514.425 175.976 514.857 178.74L518.058 199.611C518.473 202.378 517.778 205.197 516.122 207.452C514.466 209.707 511.986 211.216 509.222 211.648L488.351 214.849C485.584 215.265 482.765 214.569 480.51 212.913C478.255 211.258 476.746 208.777 476.314 206.013L473.113 185.142C472.697 182.375 473.393 179.557 475.049 177.301C476.704 175.046 479.185 173.537 481.949 173.105L502.82 169.904ZM502.18 165.731L481.309 168.931C477.439 169.536 473.966 171.648 471.649 174.805C469.331 177.963 468.357 181.909 468.939 185.782L472.14 206.653C472.745 210.523 474.857 213.996 478.014 216.313C481.171 218.631 485.118 219.605 488.991 219.023L509.862 215.822C513.731 215.217 517.204 213.105 519.522 209.948C521.84 206.791 522.814 202.844 522.231 198.971L519.031 178.1C518.426 174.231 516.314 170.758 513.157 168.44C509.999 166.122 506.053 165.148 502.18 165.731V165.731Z" fill="#3F3D56"/>
<path d="M507.551 179.861C506.723 179.986 505.879 179.777 505.205 179.28C504.531 178.783 504.081 178.039 503.955 177.211C503.829 176.383 504.037 175.539 504.533 174.865C505.029 174.19 505.773 173.74 506.601 173.613C507.429 173.486 508.273 173.693 508.948 174.188C509.624 174.684 510.075 175.427 510.202 176.254C510.33 177.082 510.124 177.927 509.629 178.603C509.135 179.278 508.392 179.73 507.564 179.859L507.551 179.861Z" fill="#3F3D56"/>
<path d="M494.305 184.028C495.956 183.774 497.646 184.017 499.159 184.723C500.673 185.43 501.943 186.57 502.809 187.999C503.675 189.427 504.097 191.081 504.024 192.75C503.95 194.419 503.383 196.028 502.394 197.375C501.406 198.722 500.04 199.745 498.47 200.315C496.9 200.886 495.196 200.978 493.573 200.58C491.951 200.182 490.483 199.312 489.355 198.08C488.227 196.847 487.49 195.308 487.236 193.657C487.068 192.561 487.118 191.442 487.382 190.364C487.646 189.287 488.12 188.272 488.776 187.378C489.433 186.484 490.259 185.728 491.207 185.153C492.156 184.578 493.209 184.196 494.305 184.028ZM493.665 179.854C491.188 180.234 488.88 181.339 487.031 183.031C485.183 184.723 483.878 186.925 483.281 189.359C482.684 191.792 482.822 194.348 483.678 196.703C484.533 199.058 486.068 201.107 488.088 202.59C490.108 204.072 492.522 204.923 495.026 205.033C497.529 205.144 500.009 204.51 502.152 203.211C504.295 201.913 506.004 200.008 507.065 197.737C508.125 195.467 508.488 192.933 508.108 190.456C507.599 187.135 505.791 184.152 503.082 182.164C500.374 180.175 496.986 179.344 493.665 179.854V179.854Z" fill="#3F3D56"/>
<path d="M885.009 87.7471C878.758 88.7063 873.027 91.7873 868.779 96.4727C864.532 101.158 862.026 107.163 861.683 113.477C861.339 119.792 863.18 126.033 866.894 131.151C870.609 136.269 875.972 139.953 882.082 141.584C881.647 139.508 881.484 137.384 881.598 135.265C881.781 132.973 882.823 119.889 882.823 119.889C882.02 118.625 881.497 117.204 881.288 115.721C880.669 111.686 882.54 108.314 885.457 107.867C887.936 107.487 889.412 109.164 889.754 111.388C890.136 113.879 889.114 117.842 888.829 121.419C888.765 122.083 888.858 122.753 889.1 123.375C889.342 123.996 889.728 124.553 890.224 124.998C890.721 125.444 891.316 125.766 891.96 125.94C892.605 126.113 893.281 126.133 893.934 125.997C899.087 125.207 901.547 118.05 900.343 110.199C899.428 104.232 894.721 100.388 887.417 101.509C879.165 102.774 874.957 109.726 876.012 116.605C876.229 118.557 877.161 120.359 878.629 121.664C878.874 121.81 879.066 122.03 879.178 122.293C879.29 122.555 879.315 122.846 879.251 123.124C879.194 123.643 879.086 124.89 879.027 125.397C879.027 125.548 878.99 125.696 878.92 125.829C878.851 125.963 878.75 126.078 878.628 126.165C878.505 126.252 878.363 126.308 878.214 126.329C878.065 126.351 877.913 126.336 877.77 126.286C873.728 125.314 871.316 121.43 870.597 116.739C869.411 109.009 874.516 98.7354 887.447 96.7523C897.838 95.1588 905.834 101.632 907.071 109.702C908.71 120.385 903.989 129.269 895.239 130.611C892.298 131.062 889.295 129.893 888.071 128.239C888.071 128.239 887.453 134.753 887.299 136.02C886.987 138.182 886.367 140.287 885.459 142.273C889.373 142.805 893.355 142.489 897.136 141.346C900.917 140.203 904.408 138.261 907.373 135.651C910.337 133.04 912.705 129.823 914.317 126.217C915.928 122.61 916.745 118.7 916.713 114.75C916.68 110.8 915.798 106.904 914.128 103.325C912.457 99.7458 910.036 96.568 907.029 94.0068C904.022 91.4457 900.499 89.5613 896.7 88.4812C892.9 87.4012 888.913 87.1509 885.008 87.7472L885.009 87.7471Z" fill="#3F3D56"/>
<path d="M718.014 21.9685L681.347 16.5656C680.404 16.3796 679.427 16.5757 678.629 17.1107C677.831 17.6456 677.278 18.4757 677.092 19.4183L677.089 19.4341L671.674 56.1826C671.554 57.175 671.818 58.1758 672.413 58.979C673.008 59.7822 673.889 60.3267 674.873 60.5006L711.53 65.9019C712.5 66.0063 713.472 65.7241 714.236 65.1166C714.999 64.5091 715.493 63.6252 715.609 62.6564L721.024 25.9079C721.17 25.0169 720.957 24.1042 720.431 23.3705C719.904 22.6368 719.108 22.1422 718.217 21.9956C718.15 21.9846 718.082 21.9755 718.014 21.9685ZM685.816 54.6412L679.522 53.7138L682.405 34.144L688.699 35.0715L685.816 54.6412ZM686.208 31.6644L686.163 31.6578C685.258 31.5185 684.446 31.0263 683.903 30.289C683.361 29.5517 683.133 28.6295 683.269 27.7244C683.405 26.8192 683.895 26.005 684.63 25.4602C685.366 24.9153 686.287 24.6842 687.193 24.8175C688.099 24.9508 688.914 25.4376 689.462 26.1713C690.009 26.905 690.243 27.8257 690.113 28.7317C689.983 29.6377 689.498 30.4551 688.766 31.0048C688.035 31.5546 687.115 31.7917 686.208 31.6644ZM708.819 58.0307L702.525 57.1033L704.101 46.403C704.479 43.8394 703.821 41.953 701.544 41.6174C700.831 41.5181 700.105 41.6425 699.465 41.9734C698.826 42.3044 698.305 42.8256 697.974 43.4651C697.733 43.9377 697.582 44.4509 697.529 44.9786L695.886 56.1251L689.592 55.1977L692.476 35.628L698.77 36.5554L698.368 39.2788C699.088 38.372 700.038 37.6757 701.119 37.263C702.201 36.8504 703.373 36.7366 704.514 36.9338C708.645 37.5426 711.369 40.7265 710.504 46.598L708.819 58.0307Z" fill="#3F3D56"/>
<path fill-rule="evenodd" clip-rule="evenodd" d="M204.059 252.234C203.262 247.048 200.997 242.199 197.53 238.261C194.064 234.322 189.541 231.459 184.498 230.011C179.455 228.563 174.103 228.591 169.075 230.09C164.047 231.589 159.554 234.498 156.127 238.471C152.701 242.445 150.485 247.317 149.741 252.511C148.998 257.705 149.758 263.003 151.932 267.778C154.106 272.553 157.603 276.606 162.009 279.455C166.414 282.305 171.544 283.832 176.791 283.857L173.883 264.894L166.99 265.951L165.787 258.104L172.679 257.047L171.762 251.066C170.719 244.266 174.195 239.885 180.394 238.934C182.434 238.651 184.492 238.516 186.551 238.533L187.575 245.213L184.152 245.738C180.782 246.254 180.049 248.507 180.378 250.656L181.159 255.747L188.685 254.593L188.687 262.625L182.363 263.595L185.271 282.559C191.5 280.569 196.815 276.421 200.259 270.862C203.703 265.304 205.05 258.698 204.059 252.234L204.059 252.234Z" fill="#3F3D56"/>
<path d="M710.484 427.449L720.526 430.086L735.477 392.605L720.655 388.713L710.484 427.449Z" fill="#FFB6B6"/>
<path d="M707.379 437.833L738.261 445.942L738.364 445.552C739.201 442.364 738.737 438.974 737.075 436.128C735.413 433.282 732.688 431.212 729.5 430.375L729.5 430.375L724.983 424.614L713.334 426.13L710.638 425.422L707.379 437.833Z" fill="#2F2E41"/>
<path d="M761.966 434.962H772.348L777.288 394.912L761.964 394.913L761.966 434.962Z" fill="#FFB6B6"/>
<path d="M761.6 445.794L793.529 445.793V445.389C793.529 442.093 792.22 438.932 789.889 436.601C787.559 434.271 784.398 432.961 781.102 432.961H781.101L775.269 428.537L764.387 432.962L761.6 432.962L761.6 445.794Z" fill="#2F2E41"/>
<path d="M735.996 243.311C733.488 246.446 734.742 257.106 734.742 257.106C734.742 257.106 730.353 291.593 732.234 294.728C734.115 297.863 730.98 300.372 729.099 304.761C727.218 309.15 725.336 319.81 725.336 319.81C714.677 328.588 715.304 368.719 715.304 368.719L711.542 404.461C712.796 408.223 730.353 408.85 732.861 408.223C735.369 407.596 759.824 319.183 759.824 319.183C759.824 319.183 758.57 404.461 758.57 408.223C758.57 411.985 775.5 410.104 779.262 410.104C783.024 410.104 806.852 256.478 806.852 256.478V247.7L803.717 243.311C803.717 243.311 738.504 240.175 735.996 243.311Z" fill="#2F2E41"/>
<path d="M763.586 128.562C774.322 128.562 783.025 119.859 783.025 109.123C783.025 98.3878 774.322 89.6849 763.586 89.6849C752.851 89.6849 744.148 98.3878 744.148 109.123C744.148 119.859 752.851 128.562 763.586 128.562Z" fill="#FFB6B6"/>
<path d="M737.471 257.178L737.365 257.029C731.702 249.102 740.218 230.052 741.503 227.291C739.978 226.796 738.671 225.787 737.806 224.437C736.941 223.087 736.57 221.479 736.757 219.886L737.311 215.18L737.888 210.563L733.753 206.428L733.742 206.325L731.362 185.504L727.903 171.675C726.599 166.447 726.71 160.967 728.224 155.796C729.739 150.625 732.602 145.95 736.52 142.252L744.517 140.982L754.236 131.618H769.909L775.283 136.752C785.849 145.412 788.357 141.65 800.271 157.953L791.741 180.428L796.509 213.575L796.511 219.574L798.995 222.334C799.889 223.328 800.539 224.517 800.893 225.807C801.247 227.097 801.294 228.451 801.032 229.763L800.706 231.395C801.968 231.936 803.082 232.772 803.954 233.832C804.827 234.893 805.433 236.147 805.72 237.49L806.593 241.56C807.339 242.544 812.264 249.112 812.264 250.907C812.264 251.177 812.065 251.437 811.638 251.727C808.282 253.999 789.729 258.633 781.517 255.348C772.771 251.85 738.001 257.097 737.651 257.15L737.471 257.178Z" fill="#3F3D56"/>
<path d="M727.595 178.327L743.758 175.163C749.735 184.089 752.944 208.498 752.944 208.498L770.813 245.556C771.912 246.224 772.814 247.17 773.427 248.299C774.041 249.429 774.344 250.7 774.306 251.985C774.269 253.269 773.891 254.521 773.212 255.612C772.533 256.703 771.577 257.595 770.442 258.197C769.306 258.798 768.031 259.088 766.747 259.037C765.463 258.985 764.215 258.594 763.131 257.904C762.048 257.213 761.166 256.248 760.577 255.106C759.987 253.964 759.711 252.686 759.776 251.403L736.47 207.495L727.595 178.327Z" fill="#FFB6B6"/>
<path d="M727.504 182.161L727.045 158.139L734.651 147.964C736.151 145.971 738.179 144.439 740.505 143.538C742.831 142.638 745.362 142.406 747.813 142.869C751.131 143.519 754.078 145.405 756.059 148.145C758.04 150.884 758.906 154.274 758.483 157.629C757.192 167.8 754.261 180.53 747.63 183.41L747.563 183.439L754.436 207.474L728.949 211.034L727.504 182.161Z" fill="#3F3D56"/>
<path d="M831.788 161.853C831.788 161.853 807.671 156.91 797.282 159.642L794.99 175.951L824.408 178.562L874.62 169.435C875.813 169.907 877.109 170.054 878.378 169.863C879.647 169.671 880.842 169.148 881.843 168.345C882.844 167.542 883.614 166.489 884.076 165.292C884.539 164.095 884.676 162.797 884.474 161.53C884.272 160.263 883.739 159.071 882.928 158.077C882.117 157.083 881.058 156.321 879.857 155.868C878.656 155.416 877.358 155.289 876.092 155.501C874.827 155.713 873.64 156.256 872.652 157.075L831.788 161.853Z" fill="#FFB6B6"/>
<path d="M802.586 179.77L778.704 177.136L769.591 168.285C767.809 166.541 766.549 164.333 765.956 161.91C765.362 159.488 765.458 156.948 766.232 154.577C767.303 151.37 769.552 148.69 772.524 147.078C775.496 145.466 778.969 145.042 782.241 145.893C792.162 148.482 802.09 146.067 804.094 153.014L807.669 151.843L831.152 156.317L831.405 182.05L802.586 179.77Z" fill="#3F3D56"/>
<path d="M741.538 96.351C743.72 92.9742 747.816 90.7237 751.787 91.3561C752.157 88.822 753.214 86.4379 754.845 84.4633C756.476 82.4887 758.617 80.9994 761.036 80.1575C763.454 79.3156 766.057 79.1533 768.562 79.6884C771.066 80.2235 773.376 81.4355 775.239 83.1923C775.852 82.7608 776.565 82.4949 777.311 82.4203C778.057 82.3457 778.809 82.4648 779.495 82.7663C780.862 83.3877 782.051 84.342 782.953 85.5419C785.232 88.3833 786.697 91.7894 787.193 95.3976C787.69 99.0057 787.198 102.681 785.771 106.032C786.257 104.268 784.489 102.608 782.702 102.212C780.916 101.816 779.042 102.191 777.231 101.933C774.909 101.603 772.822 100.256 770.497 99.9528C768.525 99.8246 766.547 100.079 764.671 100.701C762.796 101.324 760.821 101.589 758.848 101.483C756.891 101.251 754.37 108.668 754.404 113.892C754.41 114.882 754.206 116.153 753.239 116.363C752.047 116.622 751.357 114.978 750.223 114.529C749.7 114.38 749.14 114.439 748.66 114.694C748.18 114.949 747.817 115.381 747.649 115.898C747.506 116.424 747.491 116.976 747.605 117.509C747.718 118.041 747.958 118.539 748.302 118.961C749 119.797 749.827 120.515 750.753 121.087L750.286 121.475C749.843 121.944 749.25 122.243 748.61 122.323C747.97 122.402 747.322 122.257 746.778 121.911C745.707 121.186 744.84 120.198 744.259 119.043C742.07 115.658 740.505 111.909 739.639 107.972C738.784 103.997 739.462 99.8468 741.538 96.351Z" fill="#2F2E41"/>
<path d="M904.619 429.982L896.909 417.592L895.369 424.672C895.099 425.912 894.829 427.172 894.579 428.422C892.389 426.552 890.059 424.822 887.779 423.162C880.779 418.082 873.783 412.995 866.789 407.902L868.979 420.602C870.329 428.422 871.739 436.402 875.079 443.552C875.449 444.362 875.849 445.162 876.279 445.942H908.819C909.081 445.218 909.262 444.466 909.359 443.702C909.367 443.653 909.371 443.602 909.369 443.552C909.879 438.702 907.199 434.132 904.619 429.982Z" fill="#F0F0F0"/>
<path d="M932.16 447.16L656.41 447.467C656.254 447.468 656.099 447.437 655.954 447.378C655.809 447.318 655.677 447.23 655.566 447.12C655.455 447.009 655.367 446.878 655.307 446.733C655.247 446.588 655.216 446.433 655.216 446.276C655.216 446.12 655.247 445.965 655.307 445.82C655.367 445.675 655.455 445.544 655.566 445.433C655.677 445.323 655.809 445.235 655.954 445.175C656.099 445.116 656.254 445.085 656.41 445.086L932.16 444.778C932.476 444.778 932.779 444.904 933.002 445.127C933.226 445.35 933.351 445.653 933.351 445.969C933.351 446.285 933.226 446.588 933.002 446.811C932.779 447.034 932.476 447.16 932.16 447.16Z" fill="#CACACA"/>
</g>
<defs>
<clipPath id="clip0_605_3">
<rect width="933.351" height="538.011" fill="white"/>
</clipPath>
</defs>
</svg>
